<mxfile host="app.diagrams.net" modified="2023-04-24T22:03:47.054Z" agent="Mozilla/5.0 (X11; Linux x86_64) AppleWebKit/537.36 (KHTML, like Gecko) Chrome/113.0.0.0 Safari/537.36" etag="DsSdUZNWayf-o8kglD-C" version="21.2.1" type="github">
  <diagram id="R2lEEEUBdFMjLlhIrx00" name="Page-1">
    <mxGraphModel dx="1434" dy="1935" grid="1" gridSize="10" guides="1" tooltips="1" connect="1" arrows="1" fold="1" page="1" pageScale="1" pageWidth="850" pageHeight="1100" math="0" shadow="0" extFonts="Permanent Marker^https://fonts.googleapis.com/css?family=Permanent+Marker">
      <root>
        <mxCell id="0" />
        <mxCell id="1" parent="0" />
        <mxCell id="CtZSEA7i2D5SScJN1McE-1" value="User" style="rounded=0;whiteSpace=wrap;html=1;" parent="1" vertex="1">
          <mxGeometry x="360" y="100" width="120" height="60" as="geometry" />
        </mxCell>
        <mxCell id="CtZSEA7i2D5SScJN1McE-2" value="Course" style="rounded=0;whiteSpace=wrap;html=1;" parent="1" vertex="1">
          <mxGeometry x="1040" y="90" width="120" height="60" as="geometry" />
        </mxCell>
        <mxCell id="CtZSEA7i2D5SScJN1McE-3" value="Task" style="rounded=0;whiteSpace=wrap;html=1;" parent="1" vertex="1">
          <mxGeometry x="490" y="370" width="120" height="60" as="geometry" />
        </mxCell>
        <mxCell id="CtZSEA7i2D5SScJN1McE-4" value="Institution" style="rounded=0;whiteSpace=wrap;html=1;" parent="1" vertex="1">
          <mxGeometry x="510" y="790" width="120" height="60" as="geometry" />
        </mxCell>
        <mxCell id="CtZSEA7i2D5SScJN1McE-5" value="Resources" style="rounded=0;whiteSpace=wrap;html=1;" parent="1" vertex="1">
          <mxGeometry x="670" y="790" width="120" height="60" as="geometry" />
        </mxCell>
        <mxCell id="CtZSEA7i2D5SScJN1McE-6" value="Search" style="rounded=0;whiteSpace=wrap;html=1;" parent="1" vertex="1">
          <mxGeometry x="30" y="880" width="120" height="60" as="geometry" />
        </mxCell>
        <mxCell id="CtZSEA7i2D5SScJN1McE-7" value="Generator" style="rounded=0;whiteSpace=wrap;html=1;" parent="1" vertex="1">
          <mxGeometry x="190" y="880" width="120" height="60" as="geometry" />
        </mxCell>
        <mxCell id="uw39ci3O_gwY2ypVidcm-2" value="ID" style="ellipse;whiteSpace=wrap;html=1;" parent="1" vertex="1">
          <mxGeometry x="190" y="40" width="50" height="50" as="geometry" />
        </mxCell>
        <mxCell id="uw39ci3O_gwY2ypVidcm-3" value="First Name" style="ellipse;whiteSpace=wrap;html=1;" parent="1" vertex="1">
          <mxGeometry x="200" y="100" width="50" height="50" as="geometry" />
        </mxCell>
        <mxCell id="uw39ci3O_gwY2ypVidcm-4" value="Last Name" style="ellipse;whiteSpace=wrap;html=1;" parent="1" vertex="1">
          <mxGeometry x="230" y="150" width="50" height="50" as="geometry" />
        </mxCell>
        <mxCell id="uw39ci3O_gwY2ypVidcm-5" value="Email Address" style="ellipse;whiteSpace=wrap;html=1;" parent="1" vertex="1">
          <mxGeometry x="260" width="60" height="60" as="geometry" />
        </mxCell>
        <mxCell id="uw39ci3O_gwY2ypVidcm-6" value="Phone Number" style="ellipse;whiteSpace=wrap;html=1;" parent="1" vertex="1">
          <mxGeometry x="520" width="60" height="60" as="geometry" />
        </mxCell>
        <mxCell id="uw39ci3O_gwY2ypVidcm-7" value="Birth Date" style="ellipse;whiteSpace=wrap;html=1;" parent="1" vertex="1">
          <mxGeometry x="340" y="-20" width="60" height="60" as="geometry" />
        </mxCell>
        <mxCell id="uw39ci3O_gwY2ypVidcm-8" value="Gender" style="ellipse;whiteSpace=wrap;html=1;" parent="1" vertex="1">
          <mxGeometry x="425" y="-30" width="60" height="60" as="geometry" />
        </mxCell>
        <mxCell id="uw39ci3O_gwY2ypVidcm-10" value="" style="endArrow=none;html=1;rounded=0;entryX=0;entryY=0.5;entryDx=0;entryDy=0;exitX=1;exitY=1;exitDx=0;exitDy=0;" parent="1" source="uw39ci3O_gwY2ypVidcm-5" target="CtZSEA7i2D5SScJN1McE-1" edge="1">
          <mxGeometry width="50" height="50" relative="1" as="geometry">
            <mxPoint x="400" y="330" as="sourcePoint" />
            <mxPoint x="450" y="280" as="targetPoint" />
          </mxGeometry>
        </mxCell>
        <mxCell id="uw39ci3O_gwY2ypVidcm-12" value="" style="endArrow=none;html=1;rounded=0;entryX=0;entryY=0.5;entryDx=0;entryDy=0;exitX=1;exitY=0.5;exitDx=0;exitDy=0;" parent="1" source="uw39ci3O_gwY2ypVidcm-2" target="CtZSEA7i2D5SScJN1McE-1" edge="1">
          <mxGeometry width="50" height="50" relative="1" as="geometry">
            <mxPoint x="280" y="120" as="sourcePoint" />
            <mxPoint x="370" y="140" as="targetPoint" />
          </mxGeometry>
        </mxCell>
        <mxCell id="uw39ci3O_gwY2ypVidcm-13" value="" style="endArrow=none;html=1;rounded=0;exitX=1;exitY=0.5;exitDx=0;exitDy=0;entryX=0;entryY=0.5;entryDx=0;entryDy=0;" parent="1" source="uw39ci3O_gwY2ypVidcm-3" target="CtZSEA7i2D5SScJN1McE-1" edge="1">
          <mxGeometry width="50" height="50" relative="1" as="geometry">
            <mxPoint x="240" y="160" as="sourcePoint" />
            <mxPoint x="340" y="180" as="targetPoint" />
          </mxGeometry>
        </mxCell>
        <mxCell id="uw39ci3O_gwY2ypVidcm-14" value="" style="endArrow=none;html=1;rounded=0;exitX=1;exitY=0.5;exitDx=0;exitDy=0;entryX=0;entryY=0.5;entryDx=0;entryDy=0;" parent="1" source="uw39ci3O_gwY2ypVidcm-4" target="CtZSEA7i2D5SScJN1McE-1" edge="1">
          <mxGeometry width="50" height="50" relative="1" as="geometry">
            <mxPoint x="220" y="115" as="sourcePoint" />
            <mxPoint x="330" y="210" as="targetPoint" />
          </mxGeometry>
        </mxCell>
        <mxCell id="uw39ci3O_gwY2ypVidcm-15" value="" style="endArrow=none;html=1;rounded=0;entryX=0.5;entryY=0;entryDx=0;entryDy=0;exitX=0.5;exitY=1;exitDx=0;exitDy=0;" parent="1" source="uw39ci3O_gwY2ypVidcm-7" target="CtZSEA7i2D5SScJN1McE-1" edge="1">
          <mxGeometry width="50" height="50" relative="1" as="geometry">
            <mxPoint x="365" y="190" as="sourcePoint" />
            <mxPoint x="485" y="255" as="targetPoint" />
          </mxGeometry>
        </mxCell>
        <mxCell id="uw39ci3O_gwY2ypVidcm-16" value="" style="endArrow=none;html=1;rounded=0;entryX=0.5;entryY=0;entryDx=0;entryDy=0;exitX=0.5;exitY=1;exitDx=0;exitDy=0;" parent="1" source="uw39ci3O_gwY2ypVidcm-8" target="CtZSEA7i2D5SScJN1McE-1" edge="1">
          <mxGeometry width="50" height="50" relative="1" as="geometry">
            <mxPoint x="420" y="70" as="sourcePoint" />
            <mxPoint x="430" y="110" as="targetPoint" />
          </mxGeometry>
        </mxCell>
        <mxCell id="uw39ci3O_gwY2ypVidcm-17" value="" style="endArrow=none;html=1;rounded=0;entryX=0.5;entryY=0;entryDx=0;entryDy=0;exitX=0;exitY=0.5;exitDx=0;exitDy=0;" parent="1" source="uw39ci3O_gwY2ypVidcm-6" target="CtZSEA7i2D5SScJN1McE-1" edge="1">
          <mxGeometry width="50" height="50" relative="1" as="geometry">
            <mxPoint x="530" y="85" as="sourcePoint" />
            <mxPoint x="430" y="110" as="targetPoint" />
          </mxGeometry>
        </mxCell>
        <mxCell id="A39vKMBTd1vlr0lXiqjf-1" value="Name" style="ellipse;whiteSpace=wrap;html=1;" parent="1" vertex="1">
          <mxGeometry x="1065" width="50" height="50" as="geometry" />
        </mxCell>
        <mxCell id="A39vKMBTd1vlr0lXiqjf-2" value="Date Created" style="ellipse;whiteSpace=wrap;html=1;" parent="1" vertex="1">
          <mxGeometry x="1000" y="10" width="50" height="50" as="geometry" />
        </mxCell>
        <mxCell id="A39vKMBTd1vlr0lXiqjf-3" value="ID" style="ellipse;whiteSpace=wrap;html=1;" parent="1" vertex="1">
          <mxGeometry x="1130" y="-10" width="50" height="50" as="geometry" />
        </mxCell>
        <mxCell id="A39vKMBTd1vlr0lXiqjf-4" value="Version Number" style="ellipse;whiteSpace=wrap;html=1;" parent="1" vertex="1">
          <mxGeometry x="1250" y="100" width="50" height="50" as="geometry" />
        </mxCell>
        <mxCell id="A39vKMBTd1vlr0lXiqjf-5" value="Owner ID" style="ellipse;whiteSpace=wrap;html=1;" parent="1" vertex="1">
          <mxGeometry x="940" y="60" width="50" height="50" as="geometry" />
        </mxCell>
        <mxCell id="A39vKMBTd1vlr0lXiqjf-6" value="Editor ID" style="ellipse;whiteSpace=wrap;html=1;" parent="1" vertex="1">
          <mxGeometry x="950" y="120" width="50" height="50" as="geometry" />
        </mxCell>
        <mxCell id="A39vKMBTd1vlr0lXiqjf-7" value="Type" style="ellipse;whiteSpace=wrap;html=1;" parent="1" vertex="1">
          <mxGeometry x="1200" width="50" height="50" as="geometry" />
        </mxCell>
        <mxCell id="A39vKMBTd1vlr0lXiqjf-8" value="Students" style="ellipse;whiteSpace=wrap;html=1;" parent="1" vertex="1">
          <mxGeometry x="1250" y="40" width="50" height="50" as="geometry" />
        </mxCell>
        <mxCell id="A39vKMBTd1vlr0lXiqjf-9" value="" style="endArrow=none;html=1;rounded=0;exitX=1;exitY=0.5;exitDx=0;exitDy=0;entryX=0;entryY=0.5;entryDx=0;entryDy=0;" parent="1" source="A39vKMBTd1vlr0lXiqjf-5" target="CtZSEA7i2D5SScJN1McE-2" edge="1">
          <mxGeometry width="50" height="50" relative="1" as="geometry">
            <mxPoint x="790" y="150" as="sourcePoint" />
            <mxPoint x="900" y="155" as="targetPoint" />
          </mxGeometry>
        </mxCell>
        <mxCell id="A39vKMBTd1vlr0lXiqjf-10" value="" style="endArrow=none;html=1;rounded=0;exitX=0.5;exitY=1;exitDx=0;exitDy=0;entryX=0;entryY=0;entryDx=0;entryDy=0;" parent="1" source="A39vKMBTd1vlr0lXiqjf-2" target="CtZSEA7i2D5SScJN1McE-2" edge="1">
          <mxGeometry width="50" height="50" relative="1" as="geometry">
            <mxPoint x="650" y="-25" as="sourcePoint" />
            <mxPoint x="730" y="-70" as="targetPoint" />
          </mxGeometry>
        </mxCell>
        <mxCell id="A39vKMBTd1vlr0lXiqjf-11" value="" style="endArrow=none;html=1;rounded=0;exitX=0.5;exitY=1;exitDx=0;exitDy=0;entryX=0;entryY=0;entryDx=0;entryDy=0;" parent="1" source="A39vKMBTd1vlr0lXiqjf-1" target="CtZSEA7i2D5SScJN1McE-2" edge="1">
          <mxGeometry width="50" height="50" relative="1" as="geometry">
            <mxPoint x="1015" y="70" as="sourcePoint" />
            <mxPoint x="1050" y="100" as="targetPoint" />
          </mxGeometry>
        </mxCell>
        <mxCell id="A39vKMBTd1vlr0lXiqjf-12" value="" style="endArrow=none;html=1;rounded=0;exitX=0.5;exitY=1;exitDx=0;exitDy=0;entryX=0.5;entryY=0;entryDx=0;entryDy=0;" parent="1" source="A39vKMBTd1vlr0lXiqjf-3" target="CtZSEA7i2D5SScJN1McE-2" edge="1">
          <mxGeometry width="50" height="50" relative="1" as="geometry">
            <mxPoint x="1105" y="60" as="sourcePoint" />
            <mxPoint x="1050" y="100" as="targetPoint" />
          </mxGeometry>
        </mxCell>
        <mxCell id="A39vKMBTd1vlr0lXiqjf-13" value="" style="endArrow=none;html=1;rounded=0;exitX=0.5;exitY=1;exitDx=0;exitDy=0;entryX=1;entryY=0;entryDx=0;entryDy=0;" parent="1" source="A39vKMBTd1vlr0lXiqjf-7" target="CtZSEA7i2D5SScJN1McE-2" edge="1">
          <mxGeometry width="50" height="50" relative="1" as="geometry">
            <mxPoint x="1195" y="60" as="sourcePoint" />
            <mxPoint x="1110" y="100" as="targetPoint" />
          </mxGeometry>
        </mxCell>
        <mxCell id="A39vKMBTd1vlr0lXiqjf-14" value="" style="endArrow=none;html=1;rounded=0;exitX=0;exitY=0.5;exitDx=0;exitDy=0;entryX=1;entryY=0.25;entryDx=0;entryDy=0;" parent="1" source="A39vKMBTd1vlr0lXiqjf-8" target="CtZSEA7i2D5SScJN1McE-2" edge="1">
          <mxGeometry width="50" height="50" relative="1" as="geometry">
            <mxPoint x="1225" y="60" as="sourcePoint" />
            <mxPoint x="1170" y="100" as="targetPoint" />
          </mxGeometry>
        </mxCell>
        <mxCell id="A39vKMBTd1vlr0lXiqjf-15" value="" style="endArrow=none;html=1;rounded=0;exitX=0;exitY=0.5;exitDx=0;exitDy=0;entryX=1;entryY=0.25;entryDx=0;entryDy=0;" parent="1" source="A39vKMBTd1vlr0lXiqjf-4" target="CtZSEA7i2D5SScJN1McE-2" edge="1">
          <mxGeometry width="50" height="50" relative="1" as="geometry">
            <mxPoint x="1260" y="75" as="sourcePoint" />
            <mxPoint x="1170" y="115" as="targetPoint" />
          </mxGeometry>
        </mxCell>
        <mxCell id="A39vKMBTd1vlr0lXiqjf-16" value="" style="endArrow=none;html=1;rounded=0;exitX=0;exitY=0.5;exitDx=0;exitDy=0;entryX=1;entryY=0.5;entryDx=0;entryDy=0;" parent="1" source="CtZSEA7i2D5SScJN1McE-2" target="A39vKMBTd1vlr0lXiqjf-6" edge="1">
          <mxGeometry width="50" height="50" relative="1" as="geometry">
            <mxPoint x="1260" y="135" as="sourcePoint" />
            <mxPoint x="1170" y="115" as="targetPoint" />
          </mxGeometry>
        </mxCell>
        <mxCell id="Amn-k6kEI2SlUnUKtU05-3" value="ID" style="ellipse;whiteSpace=wrap;html=1;" vertex="1" parent="1">
          <mxGeometry x="380" y="400" width="50" height="50" as="geometry" />
        </mxCell>
        <mxCell id="Amn-k6kEI2SlUnUKtU05-4" value="Owner ID" style="ellipse;whiteSpace=wrap;html=1;" vertex="1" parent="1">
          <mxGeometry x="370" y="340" width="50" height="50" as="geometry" />
        </mxCell>
        <mxCell id="Amn-k6kEI2SlUnUKtU05-5" value="Editor ID" style="ellipse;whiteSpace=wrap;html=1;" vertex="1" parent="1">
          <mxGeometry x="420" y="290" width="50" height="50" as="geometry" />
        </mxCell>
        <mxCell id="Amn-k6kEI2SlUnUKtU05-6" value="" style="endArrow=none;html=1;rounded=0;exitX=0.5;exitY=1;exitDx=0;exitDy=0;entryX=0;entryY=0.5;entryDx=0;entryDy=0;" edge="1" parent="1" source="Amn-k6kEI2SlUnUKtU05-4" target="CtZSEA7i2D5SScJN1McE-3">
          <mxGeometry width="50" height="50" relative="1" as="geometry">
            <mxPoint x="300" y="260" as="sourcePoint" />
            <mxPoint x="410" y="265" as="targetPoint" />
          </mxGeometry>
        </mxCell>
        <mxCell id="Amn-k6kEI2SlUnUKtU05-7" value="" style="endArrow=none;html=1;rounded=0;exitX=1;exitY=1;exitDx=0;exitDy=0;entryX=0;entryY=0.75;entryDx=0;entryDy=0;" edge="1" parent="1" source="Amn-k6kEI2SlUnUKtU05-3" target="CtZSEA7i2D5SScJN1McE-3">
          <mxGeometry width="50" height="50" relative="1" as="geometry">
            <mxPoint x="475" y="330" as="sourcePoint" />
            <mxPoint x="500" y="380" as="targetPoint" />
          </mxGeometry>
        </mxCell>
        <mxCell id="Amn-k6kEI2SlUnUKtU05-8" value="" style="endArrow=none;html=1;rounded=0;exitX=0.5;exitY=1;exitDx=0;exitDy=0;entryX=0;entryY=0;entryDx=0;entryDy=0;" edge="1" parent="1" source="Amn-k6kEI2SlUnUKtU05-5" target="CtZSEA7i2D5SScJN1McE-3">
          <mxGeometry width="50" height="50" relative="1" as="geometry">
            <mxPoint x="475" y="330" as="sourcePoint" />
            <mxPoint x="500" y="380" as="targetPoint" />
          </mxGeometry>
        </mxCell>
        <mxCell id="Amn-k6kEI2SlUnUKtU05-9" value="Students" style="ellipse;whiteSpace=wrap;html=1;" vertex="1" parent="1">
          <mxGeometry x="485" y="280" width="50" height="50" as="geometry" />
        </mxCell>
        <mxCell id="Amn-k6kEI2SlUnUKtU05-10" value="Name" style="ellipse;whiteSpace=wrap;html=1;" vertex="1" parent="1">
          <mxGeometry x="610" y="270" width="50" height="50" as="geometry" />
        </mxCell>
        <mxCell id="Amn-k6kEI2SlUnUKtU05-11" value="Date Created" style="ellipse;whiteSpace=wrap;html=1;" vertex="1" parent="1">
          <mxGeometry x="545" y="280" width="50" height="50" as="geometry" />
        </mxCell>
        <mxCell id="Amn-k6kEI2SlUnUKtU05-12" value="Type" style="ellipse;whiteSpace=wrap;html=1;" vertex="1" parent="1">
          <mxGeometry x="660" y="400" width="50" height="50" as="geometry" />
        </mxCell>
        <mxCell id="Amn-k6kEI2SlUnUKtU05-13" value="Version Number" style="ellipse;whiteSpace=wrap;html=1;" vertex="1" parent="1">
          <mxGeometry x="700" y="360" width="50" height="50" as="geometry" />
        </mxCell>
        <mxCell id="Amn-k6kEI2SlUnUKtU05-14" value="Due Date" style="ellipse;whiteSpace=wrap;html=1;" vertex="1" parent="1">
          <mxGeometry x="620" y="450" width="50" height="50" as="geometry" />
        </mxCell>
        <mxCell id="Amn-k6kEI2SlUnUKtU05-15" value="State" style="ellipse;whiteSpace=wrap;html=1;" vertex="1" parent="1">
          <mxGeometry x="640" y="320" width="50" height="50" as="geometry" />
        </mxCell>
        <mxCell id="Amn-k6kEI2SlUnUKtU05-16" value="" style="endArrow=none;html=1;rounded=0;exitX=0.5;exitY=1;exitDx=0;exitDy=0;entryX=0.25;entryY=0;entryDx=0;entryDy=0;" edge="1" parent="1" source="Amn-k6kEI2SlUnUKtU05-9" target="CtZSEA7i2D5SScJN1McE-3">
          <mxGeometry width="50" height="50" relative="1" as="geometry">
            <mxPoint x="445" y="340" as="sourcePoint" />
            <mxPoint x="500" y="380" as="targetPoint" />
          </mxGeometry>
        </mxCell>
        <mxCell id="Amn-k6kEI2SlUnUKtU05-17" value="" style="endArrow=none;html=1;rounded=0;exitX=0.5;exitY=1;exitDx=0;exitDy=0;entryX=0.5;entryY=0;entryDx=0;entryDy=0;" edge="1" parent="1" source="Amn-k6kEI2SlUnUKtU05-11" target="CtZSEA7i2D5SScJN1McE-3">
          <mxGeometry width="50" height="50" relative="1" as="geometry">
            <mxPoint x="525" y="320" as="sourcePoint" />
            <mxPoint x="530" y="380" as="targetPoint" />
          </mxGeometry>
        </mxCell>
        <mxCell id="Amn-k6kEI2SlUnUKtU05-18" value="" style="endArrow=none;html=1;rounded=0;exitX=0.5;exitY=1;exitDx=0;exitDy=0;entryX=0.5;entryY=0;entryDx=0;entryDy=0;" edge="1" parent="1" source="Amn-k6kEI2SlUnUKtU05-10" target="CtZSEA7i2D5SScJN1McE-3">
          <mxGeometry width="50" height="50" relative="1" as="geometry">
            <mxPoint x="580" y="340" as="sourcePoint" />
            <mxPoint x="560" y="380" as="targetPoint" />
          </mxGeometry>
        </mxCell>
        <mxCell id="Amn-k6kEI2SlUnUKtU05-19" value="" style="endArrow=none;html=1;rounded=0;exitX=0;exitY=0.5;exitDx=0;exitDy=0;entryX=0.75;entryY=0;entryDx=0;entryDy=0;" edge="1" parent="1" source="Amn-k6kEI2SlUnUKtU05-15" target="CtZSEA7i2D5SScJN1McE-3">
          <mxGeometry width="50" height="50" relative="1" as="geometry">
            <mxPoint x="645" y="340" as="sourcePoint" />
            <mxPoint x="560" y="380" as="targetPoint" />
          </mxGeometry>
        </mxCell>
        <mxCell id="Amn-k6kEI2SlUnUKtU05-20" value="" style="endArrow=none;html=1;rounded=0;exitX=0;exitY=0.5;exitDx=0;exitDy=0;entryX=1;entryY=0.25;entryDx=0;entryDy=0;" edge="1" parent="1" source="Amn-k6kEI2SlUnUKtU05-13" target="CtZSEA7i2D5SScJN1McE-3">
          <mxGeometry width="50" height="50" relative="1" as="geometry">
            <mxPoint x="680" y="345" as="sourcePoint" />
            <mxPoint x="590" y="380" as="targetPoint" />
          </mxGeometry>
        </mxCell>
        <mxCell id="Amn-k6kEI2SlUnUKtU05-21" value="" style="endArrow=none;html=1;rounded=0;exitX=0;exitY=0;exitDx=0;exitDy=0;entryX=1;entryY=0.5;entryDx=0;entryDy=0;" edge="1" parent="1" source="Amn-k6kEI2SlUnUKtU05-12" target="CtZSEA7i2D5SScJN1McE-3">
          <mxGeometry width="50" height="50" relative="1" as="geometry">
            <mxPoint x="710" y="405" as="sourcePoint" />
            <mxPoint x="620" y="395" as="targetPoint" />
          </mxGeometry>
        </mxCell>
        <mxCell id="Amn-k6kEI2SlUnUKtU05-22" value="" style="endArrow=none;html=1;rounded=0;exitX=0.5;exitY=0;exitDx=0;exitDy=0;entryX=1;entryY=0.75;entryDx=0;entryDy=0;" edge="1" parent="1" source="Amn-k6kEI2SlUnUKtU05-14" target="CtZSEA7i2D5SScJN1McE-3">
          <mxGeometry width="50" height="50" relative="1" as="geometry">
            <mxPoint x="657" y="427" as="sourcePoint" />
            <mxPoint x="620" y="410" as="targetPoint" />
          </mxGeometry>
        </mxCell>
      </root>
    </mxGraphModel>
  </diagram>
</mxfile>
